<svg xmlns="http://www.w3.org/2000/svg" viewBox="0 0 24 24">
  <path fill="currentColor" d="M12.504 0c-.155 0-.315.008-.48.021-4.226.333-3.105 4.807-3.17 6.298-.076 1.092-.3 1.953-1.05 3.02-.885 1.051-2.127 2.75-2.716 4.521-.278.832-.41 1.684-.287 2.489a.424.424 0 0 0-.11.119c-.26.268-.449.601-.662.919-.154.226-.347.443-.625.533-.135.043-.325.067-.46-.049-.135-.116-.15-.309-.165-.46-.042-.428-.105-.895-.184-1.343-.205-1.156-.374-2.322-.495-3.49-.105-1.005-.188-2.023-.172-3.037.005-.283.028-.566.104-.836.26-.915 1.283-1.28 2.145-1.308.211-.006.425.007.631-.051.49-.147.759-.679.789-1.152.033-.521-.185-1.092-.597-1.372-.488-.332-1.125-.19-1.678-.077-.799.165-1.577.496-2.178 1.053-.648.596-1.149 1.359-1.432 2.194-.38 1.115-.421 2.317-.396 3.484.004.223-.01.446-.026.668l-.463-.014a20.902 20.902 0 0 1-1.562-.221c-.253-.055-.627-.207-.825-.341a.77.77 0 0 1-.176-.32c-.035-.127-.038-.265-.055-.397-.105-.815-.219-1.627-.368-2.433-.162-.881-.373-1.74-.526-2.62-.105-.603-.067-1.237.097-1.831.271-.982 1.039-1.571 1.963-1.911.505-.185 1.023-.355 1.551-.452C4.31.896 4.59.76 4.57.414 4.551.074 4.251-.045 3.927.017c-.92.172-1.826.452-2.691.83a5.71 5.71 0 0 0-1.084.654C-.073 2.332-.235 3.457.246 4.45c.122.253.301.462.484.655.265.28.561.508.87.714.527.353 1.09.639 1.661.91l.188.091c-.095.22-.145.458-.215.688l-.74 2.355c-.031.097-.063.192-.104.284-.102.226-.238.44-.357.659-.134.242-.27.485-.392.734-.255.527-.38 1.1-.312 1.68.07.582.342 1.118.75 1.537.385.397.847.697 1.343.909a3.478 3.478 0 0 0 1.574.311c.622-.009 1.242-.177 1.79-.466a4.754 4.754 0 0 0 1.456-1.12c.369-.405.663-.864.883-1.35.262-.576.38-1.205.425-1.833.052-.722-.043-1.447-.217-2.142a7.597 7.597 0 0 0-.349-1.052c.043-.035.085-.071.124-.11.274-.259.512-.557.742-.866.193-.26.363-.537.548-.803.286-.41.546-.834.772-1.278.278-.546.495-1.122.642-1.71.156-.632.25-1.285.25-1.935 0-.557-.089-1.112-.287-1.633-.365-.957-1.107-1.798-2.101-2.108a3.458 3.458 0 0 0-.87-.176c.136-.083.262-.177.379-.285.336-.306.577-.677.721-1.095.195-.566.104-1.194-.144-1.723-.129-.275-.345-.482-.56-.673l.012-.022c.229-.127.444-.271.642-.439.446-.383.842-.817 1.129-1.33.365-.653.505-1.43.339-2.167-.167-.742-.638-1.357-1.261-1.76-.528-.341-1.132-.51-1.738-.596A6.601 6.601 0 0 0 12.504 0z"/>
</svg> 