<?xml version="1.0" encoding="utf-8"?>
<svg fill="#000000" width="800px" height="800px" viewBox="-4 0 19 19" xmlns="http://www.w3.org/2000/svg" class="cf-icon-svg" xmlns:bx="https://boxy-svg.com"><defs><bx:export><bx:file format="svg"/></bx:export></defs><path d="M 11.483 6.232 C 11.418 7.895 10.789 9.486 9.699 10.743 C 9.377 11.102 9.13 11.524 8.976 11.982 L 8.976 13.267 C 8.976 13.917 8.449 14.444 7.799 14.444 L 3.201 14.444 C 2.551 14.444 2.024 13.917 2.024 13.267 L 2.024 11.982 C 1.87 11.524 1.623 11.102 1.301 10.743 C 0.21 9.486 -0.42 7.895 -0.485 6.232 C -0.485 1.625 4.502 -1.255 8.492 1.049 C 9.622 1.701 10.507 2.704 11.014 3.905 C 11.326 4.642 11.487 5.434 11.485 6.235 L 11.483 6.232 Z M 10.305 6.232 C 10.305 2.533 6.301 0.221 3.097 2.071 C 1.611 2.929 0.695 4.515 0.695 6.232 C 0.695 9.16 3.201 10.456 3.201 11.982 L 3.201 13.267 L 7.799 13.267 L 7.799 11.982 C 7.799 10.456 10.305 9.16 10.305 6.232 L 10.305 6.232 Z M 8.387 15.826 C 8.388 16.151 8.124 16.415 7.799 16.415 L 3.201 16.415 C 2.748 16.415 2.465 15.925 2.692 15.532 C 2.797 15.35 2.991 15.238 3.201 15.238 L 7.799 15.238 C 8.123 15.238 8.386 15.501 8.387 15.826 L 8.387 15.826 Z M 7.594 17.389 C 7.635 17.508 7.596 17.64 7.497 17.718 C 6.304 18.645 4.634 18.645 3.441 17.718 C 3.261 17.58 3.298 17.3 3.507 17.213 C 3.543 17.199 3.581 17.191 3.62 17.191 L 7.317 17.191 C 7.442 17.191 7.554 17.271 7.595 17.389 L 7.594 17.389 Z" style="fill: rgb(152, 152, 152);" id="object-0"/></svg>